<svg width="512" height="512" viewBox="0 0 512 512" xmlns="http://www.w3.org/2000/svg" role="img" aria-label="TM Hub">
  <rect width="512" height="512" fill="#0d1117"/>
  <rect x="48" y="48" width="416" height="416" rx="92" fill="#111820" stroke="#1d6f37" stroke-width="4"/>
  <path d="M116 174H270V220H216V342H169V220H116V174Z" fill="#3fb950"/>
  <path d="M286 342V174H332L365 256L398 174H444V342H400V256L377 315H353L330 256V342H286Z" fill="#3fb950"/>
  <path d="M116 174H270V220H216V342H169V220H116V174ZM286 342V174H332L365 256L398 174H444V342H400V256L377 315H353L330 256V342H286Z" fill="none" stroke="#75e083" stroke-width="6" stroke-linejoin="round" opacity="0.22"/>
</svg>
